<svg width="57" height="57" viewBox="0 0 57 57" fill="none" xmlns="http://www.w3.org/2000/svg">
<g id="adobe-pdf-pack" clip-path="url(#clip0_491_16868)">
<path id="Vector" d="M10.4701 1.47266H46.7648C52.4052 1.47266 57.0201 6.08754 57.0201 11.728V46.7924C57.0201 52.4329 52.4052 57.0478 46.7648 57.0478H10.2753C4.6349 57.0478 0.0200195 52.4329 0.0200195 46.7924V11.9227C0.0200195 6.16336 4.71072 1.47266 10.4701 1.47266Z" fill="#B5EEBF"/>
<path id="Vector_2" d="M10.945 3.84766H46.2897C50.9043 3.84766 54.645 7.58839 54.645 12.2029V46.3173C54.645 50.9319 50.9041 54.6726 46.2897 54.6726H10.7503C6.13576 54.6726 2.39502 50.9318 2.39502 46.3173V12.3977C2.39502 7.64762 6.19498 3.84766 10.945 3.84766Z" fill="#1A932E"/>
<g id="Group">
<path id="Vector_3" d="M42.4606 42.6348L42.4474 23.0002C42.4474 22.8836 42.405 22.7711 42.3282 22.6835L35.1704 14.5254C35.0793 14.4214 34.9477 14.3618 34.8094 14.3618H21.6109C21.3456 14.3618 21.1306 14.5769 21.1306 14.8421V42.1577C21.1306 42.423 21.3457 42.6379 21.6109 42.6379H41.4867C41.4974 42.6379 41.5073 42.6355 41.5179 42.6348H42.4606ZM34.8764 15.9413C34.8764 15.839 35.0032 15.7913 35.0707 15.8682L40.8635 22.4706C40.9264 22.5423 40.8755 22.6546 40.7801 22.6546H35.3567C35.0914 22.6546 34.8764 22.4396 34.8764 22.1744V15.9413ZM22.5714 41.6774C22.3061 41.6774 22.0912 41.4623 22.0912 41.1971V15.8027C22.0912 15.5374 22.3062 15.3225 22.5714 15.3225H33.4355C33.7008 15.3225 33.9158 15.5376 33.9158 15.8027V23.1349C33.9158 23.4002 34.1308 23.6152 34.396 23.6152H41.0064C41.2717 23.6152 41.4866 23.8303 41.4866 24.0955L41.4992 41.6786C41.495 41.6785 41.491 41.6774 41.4866 41.6774H22.5714Z" fill="#E2E2E2"/>
<path id="Vector_4" d="M30.0292 22.8213C28.9382 22.0549 26.395 20.2688 25.5556 19.6792C25.4399 19.5979 25.2813 19.6811 25.2813 19.8223V21.2363H14.7141C14.6177 21.2363 14.5396 21.3145 14.5396 21.4109V24.88C14.5396 24.9764 14.6177 25.0545 14.7141 25.0545H25.2813V26.5311C25.4066 26.5962 25.4307 26.6088 25.5561 26.6739L30.0285 23.5326C30.2751 23.3593 30.2757 22.9944 30.0292 22.8213Z" fill="#B5EEBF"/>
</g>
</g>
<defs>
<clipPath id="clip0_491_16868">
<rect width="57" height="57" fill="white"/>
</clipPath>
</defs>
</svg>
